<?xml version="1.0" standalone="no"?>
<!DOCTYPE svg PUBLIC "-//W3C//DTD SVG 20010904//EN"
 "http://www.w3.org/TR/2001/REC-SVG-20010904/DTD/svg10.dtd">
<svg version="1.0" xmlns="http://www.w3.org/2000/svg"
 width="4519.000000pt" height="4519.000000pt" viewBox="0 0 4519.000000 4519.000000"
 preserveAspectRatio="xMidYMid meet">
<metadata>
Created by potrace 1.11, written by Peter Selinger 2001-2013
</metadata>
<g transform="translate(0.000000,4519.000000) scale(0.100000,-0.100000)"
fill="#000000" stroke="none">
<path d="M22895 39112 c6 -6 51 -22 100 -37 50 -14 135 -40 190 -58 55 -17
102 -32 105 -32 3 -1 12 -4 20 -8 8 -3 78 -26 155 -52 77 -26 183 -63 235 -82
52 -20 99 -36 105 -37 11 -2 295 -111 340 -131 17 -7 55 -23 85 -35 30 -12 66
-27 80 -33 14 -6 28 -11 33 -12 4 -2 9 -4 12 -5 3 -1 8 -3 13 -4 4 -2 33 -14
66 -29 32 -15 60 -27 63 -27 2 0 24 -9 49 -20 44 -20 94 -42 104 -45 3 -1 40
-18 83 -38 43 -20 80 -37 81 -37 6 0 241 -111 256 -121 8 -5 22 -12 30 -15 41
-16 346 -170 508 -257 214 -114 511 -282 669 -379 61 -37 116 -68 122 -68 6 0
11 -4 11 -8 0 -5 10 -14 23 -20 28 -15 69 -39 127 -76 84 -54 545 -360 550
-366 3 -3 52 -39 110 -80 233 -164 806 -607 915 -707 11 -10 47 -40 80 -68
574 -479 1273 -1187 1784 -1804 177 -213 279 -344 464 -591 76 -102 143 -192
150 -200 7 -9 28 -38 46 -65 19 -28 37 -52 40 -55 4 -3 11 -13 16 -22 6 -9 82
-124 171 -255 174 -258 295 -449 428 -674 47 -79 90 -149 96 -156 5 -7 10 -15
10 -18 0 -3 41 -78 91 -166 211 -375 432 -818 611 -1224 43 -99 83 -189 88
-200 28 -62 89 -213 92 -228 3 -19 -5 -23 -177 -86 -27 -11 -63 -25 -80 -31
-16 -7 -34 -14 -40 -16 -5 -1 -23 -8 -40 -15 -16 -6 -34 -13 -40 -15 -5 -1
-23 -8 -40 -15 -16 -7 -32 -13 -35 -14 -9 -2 -174 -65 -195 -75 -11 -5 -153
-61 -315 -126 -262 -104 -371 -148 -391 -160 -4 -2 -78 103 -165 234 -142 213
-298 439 -314 452 -3 3 -14 18 -24 35 -11 16 -23 34 -28 40 -4 5 -58 75 -118
155 -155 203 -151 198 -289 365 -277 334 -575 660 -866 945 -126 124 -275 266
-319 305 -6 6 -52 46 -101 91 -50 44 -142 124 -205 178 -63 54 -126 108 -140
120 -14 12 -92 76 -175 141 -82 66 -152 122 -155 125 -24 26 -494 364 -660
475 -58 39 -106 73 -108 78 -2 4 -9 7 -15 7 -7 0 -25 11 -41 25 -16 14 -35 25
-42 25 -7 0 -14 4 -16 8 -4 10 -215 142 -227 142 -5 0 -11 3 -13 8 -5 10 -173
112 -187 112 -6 0 -11 3 -11 8 0 4 -10 12 -23 18 -12 7 -112 62 -222 124 -182
102 -674 352 -835 424 -36 16 -99 45 -140 64 -41 19 -79 35 -85 36 -5 2 -37
15 -70 30 -54 24 -318 131 -520 209 -63 25 -159 59 -170 61 -5 1 -14 4 -20 7
-8 5 -135 49 -155 54 -3 1 -12 4 -20 8 -35 13 -95 30 -96 26 0 -2 -7 1 -15 7
-12 9 -142 53 -174 58 -5 1 -16 5 -22 9 -7 5 -13 5 -13 1 0 -3 -6 -2 -12 3 -7
6 -26 14 -43 18 -51 12 -58 14 -130 36 -65 19 -198 56 -302 84 -54 14 -261 66
-278 70 -11 2 -38 9 -60 14 -22 5 -53 13 -70 16 -60 12 -81 16 -125 26 -67 16
-69 16 -150 33 -41 8 -88 18 -105 21 -16 2 -41 7 -55 10 -44 9 -131 24 -235
41 -16 2 -55 9 -85 14 -76 13 -108 18 -160 25 -25 3 -56 8 -70 10 -14 3 -47 7
-75 10 -27 3 -61 8 -75 10 -14 2 -47 6 -75 10 -27 3 -66 8 -85 10 -72 9 -214
23 -405 40 -307 27 -622 39 -1020 39 -283 0 -593 -8 -740 -19 -27 -2 -93 -6
-145 -10 -52 -3 -115 -7 -140 -10 -25 -2 -76 -7 -115 -10 -154 -14 -263 -26
-360 -39 -16 -2 -59 -7 -95 -11 -36 -4 -74 -9 -85 -11 -11 -2 -37 -6 -59 -9
-21 -3 -50 -7 -65 -9 -14 -3 -44 -7 -66 -11 -23 -3 -52 -8 -65 -10 -14 -3 -42
-7 -64 -10 -49 -6 -125 -19 -176 -30 -14 -3 -37 -7 -52 -10 -16 -3 -40 -7 -55
-10 -16 -3 -39 -7 -53 -10 -38 -7 -132 -26 -160 -31 -14 -2 -56 -11 -95 -20
-38 -9 -81 -18 -95 -20 -14 -3 -33 -7 -42 -10 -18 -5 -48 -12 -88 -20 -14 -3
-38 -9 -55 -14 -16 -5 -50 -14 -75 -19 -25 -5 -54 -12 -65 -15 -49 -13 -181
-48 -195 -51 -8 -1 -35 -9 -60 -16 -25 -7 -49 -14 -55 -15 -5 -2 -35 -10 -65
-19 -30 -9 -62 -18 -70 -20 -8 -2 -15 -4 -15 -5 0 -1 -9 -3 -20 -5 -11 -2 -56
-16 -100 -30 -44 -15 -88 -28 -98 -30 -16 -4 -306 -99 -337 -112 -8 -3 -19 -7
-25 -9 -35 -9 -276 -98 -340 -125 -11 -4 -83 -33 -160 -63 -162 -64 -326 -132
-405 -168 -30 -14 -77 -35 -105 -48 -321 -144 -749 -363 -1023 -522 -48 -28
-107 -62 -132 -76 -123 -69 -320 -193 -580 -364 -257 -170 -709 -497 -718
-520 -2 -4 -10 -8 -17 -8 -7 0 -15 -3 -17 -8 -2 -4 -61 -54 -133 -111 -117
-94 -343 -283 -420 -352 -517 -459 -939 -893 -1355 -1394 -69 -82 -128 -154
-133 -160 -4 -5 -37 -48 -74 -95 -261 -336 -476 -639 -705 -995 -68 -105 -238
-384 -238 -389 0 -2 -27 -50 -60 -106 -33 -56 -60 -104 -60 -106 0 -2 -10 -21
-23 -42 -73 -117 -328 -623 -440 -872 -13 -30 -34 -76 -45 -101 -40 -87 -104
-234 -106 -244 -3 -11 -8 -23 -49 -120 -38 -90 -137 -350 -137 -359 0 -5 -6
-22 -14 -39 -8 -18 -21 -52 -30 -77 -8 -25 -26 -75 -40 -113 -14 -37 -26 -71
-27 -75 -2 -11 -6 -20 -40 -122 -17 -52 -32 -99 -33 -105 -3 -12 -43 -143 -62
-200 -14 -43 -64 -220 -69 -245 -2 -8 -10 -40 -19 -71 -9 -31 -19 -65 -21 -75
-2 -11 -22 -91 -44 -178 -22 -88 -42 -171 -45 -185 -3 -14 -9 -41 -15 -59 -5
-18 -10 -35 -10 -37 0 -3 -2 -18 -5 -33 -3 -15 -8 -42 -11 -61 -3 -19 -8 -37
-10 -41 -2 -4 -7 -26 -10 -50 -3 -23 -7 -45 -9 -49 -2 -3 -7 -26 -11 -51 -4
-25 -8 -47 -11 -51 -2 -3 -6 -25 -9 -49 -3 -23 -7 -45 -9 -49 -2 -3 -7 -31
-11 -61 -4 -30 -8 -57 -10 -60 -2 -3 -6 -30 -10 -60 -4 -30 -8 -57 -10 -60 -3
-5 -13 -74 -20 -130 -2 -14 -5 -38 -8 -55 -5 -28 -9 -56 -23 -160 -3 -22 -7
-51 -9 -65 -4 -23 -7 -48 -20 -170 -3 -25 -7 -65 -10 -90 -18 -155 -29 -289
-40 -455 -4 -49 -8 -115 -10 -145 -24 -340 -24 -1071 0 -1440 5 -89 16 -242
20 -285 1 -22 6 -76 9 -120 4 -44 9 -96 11 -115 3 -19 7 -57 10 -85 11 -103
15 -139 20 -174 2 -20 7 -56 10 -81 6 -53 14 -110 22 -165 3 -22 7 -50 8 -62
3 -20 13 -82 20 -123 1 -8 6 -35 10 -60 10 -68 14 -92 20 -120 2 -13 7 -40 10
-60 3 -20 8 -47 10 -60 3 -14 7 -36 10 -50 8 -43 14 -74 20 -100 3 -14 7 -36
10 -50 3 -14 7 -36 10 -50 3 -14 8 -36 10 -50 3 -14 10 -47 16 -75 6 -27 12
-61 15 -75 3 -14 7 -33 10 -42 3 -10 7 -30 10 -45 3 -16 12 -55 21 -88 16 -63
21 -84 29 -124 3 -14 7 -28 9 -31 2 -4 7 -20 9 -36 3 -16 17 -69 31 -119 14
-49 28 -99 30 -111 3 -11 27 -96 55 -190 28 -93 52 -177 55 -186 6 -26 162
-489 176 -523 7 -16 13 -34 15 -40 8 -28 36 -100 45 -117 6 -11 12 -27 14 -36
2 -9 9 -30 16 -47 7 -16 13 -32 14 -35 3 -9 17 -43 57 -145 69 -172 140 -337
159 -372 10 -18 19 -35 18 -38 0 -3 9 -25 19 -48 110 -249 298 -624 439 -877
14 -25 41 -74 61 -110 19 -36 65 -114 101 -175 36 -60 70 -118 76 -127 33 -57
104 -172 143 -231 27 -42 41 -72 35 -75 -9 -6 -120 -103 -163 -142 -9 -8 -45
-40 -81 -70 -35 -30 -107 -93 -159 -139 -52 -46 -108 -96 -125 -111 -121 -106
-242 -213 -310 -275 -44 -39 -129 -116 -190 -170 -60 -54 -126 -113 -145 -130
-19 -18 -118 -108 -220 -200 -189 -172 -217 -197 -274 -250 -90 -83 -266 -246
-307 -283 l-46 -42 -34 39 c-19 21 -83 92 -144 158 -148 159 -225 246 -340
383 -54 63 -109 129 -124 145 -14 17 -42 50 -61 75 -19 25 -37 47 -41 50 -3 3
-57 70 -120 150 -238 300 -495 652 -684 937 -36 54 -70 105 -76 113 -47 69
-167 257 -195 307 -19 33 -41 67 -49 73 -8 7 -15 16 -15 21 0 5 -12 28 -27 52
-41 65 -169 284 -221 377 -13 25 -50 90 -80 145 -90 159 -154 283 -286 550
-162 326 -204 415 -306 650 -28 66 -58 133 -66 149 -8 16 -14 33 -14 37 0 5
-13 36 -29 69 -16 33 -28 60 -26 60 2 0 -5 21 -16 48 -11 26 -24 56 -28 67 -5
11 -13 31 -19 45 -13 29 -34 81 -38 95 -3 11 -27 76 -42 115 -5 14 -10 28 -11
32 -1 4 -9 25 -18 45 -21 50 -97 265 -134 378 -17 50 -33 97 -36 105 -3 8 -7
20 -8 25 -2 6 -20 62 -41 125 -21 63 -39 120 -40 125 -10 37 -65 218 -68 224
-3 4 -7 18 -10 32 -3 13 -14 56 -25 94 -17 61 -40 145 -72 265 -5 19 -12 43
-14 53 -2 10 -7 27 -10 37 -3 10 -7 27 -9 37 -2 10 -9 38 -16 63 -7 25 -14 56
-17 69 -2 14 -6 28 -8 32 -3 4 -7 24 -10 45 -4 22 -10 53 -15 69 -5 17 -11 41
-14 55 -3 14 -8 36 -11 50 -3 14 -9 42 -12 63 -3 20 -10 37 -15 37 -5 0 -7 -3
-5 -7 3 -5 8 -28 11 -53 7 -49 13 -86 22 -140 4 -19 8 -44 9 -55 7 -49 39
-243 50 -295 3 -14 7 -37 10 -52 3 -16 7 -40 10 -55 3 -16 7 -39 10 -53 3 -14
7 -36 10 -50 3 -14 7 -35 10 -47 12 -53 14 -62 19 -99 4 -22 9 -47 12 -56 5
-18 13 -51 19 -83 4 -22 11 -53 22 -100 8 -35 7 -30 17 -75 4 -19 25 -107 47
-194 22 -88 41 -169 43 -180 2 -12 19 -73 36 -136 18 -63 36 -128 40 -145 26
-95 43 -158 63 -220 12 -38 22 -73 23 -77 1 -5 2 -9 4 -10 2 -4 7 -24 15 -63
3 -16 11 -35 17 -42 6 -7 8 -13 4 -13 -3 0 1 -17 8 -37 8 -21 42 -121 75 -223
55 -170 142 -424 158 -460 3 -8 7 -19 9 -25 1 -5 8 -23 15 -40 7 -16 13 -32
13 -35 1 -3 6 -18 13 -35 6 -16 24 -61 38 -100 44 -114 119 -301 173 -431 45
-107 66 -155 117 -269 7 -16 31 -70 53 -120 106 -240 336 -703 476 -960 86
-156 104 -188 214 -380 63 -110 120 -207 128 -216 8 -8 14 -18 14 -22 0 -6 81
-138 90 -147 7 -7 29 -42 37 -60 3 -8 24 -41 45 -72 21 -31 38 -59 38 -62 0
-9 64 -101 72 -104 4 -2 8 -7 8 -12 0 -12 141 -224 151 -228 5 -2 9 -7 9 -12
0 -11 91 -144 101 -148 5 -2 9 -8 9 -13 0 -7 129 -193 163 -234 4 -5 35 -48
69 -95 67 -93 264 -348 366 -475 l64 -79 -74 -70 c-86 -82 -337 -322 -591
-566 -268 -258 -1453 -1445 -1737 -1740 -364 -378 -470 -489 -630 -660 -80
-84 -181 -192 -225 -239 -45 -47 -108 -115 -140 -151 -75 -81 -180 -194 -221
-237 -17 -18 -46 -49 -64 -70 -18 -21 -60 -67 -94 -103 -34 -36 -127 -137
-206 -225 -80 -88 -147 -162 -150 -165 -4 -3 -136 -151 -295 -330 -159 -179
-301 -338 -316 -355 -15 -16 -96 -109 -179 -205 -84 -96 -167 -191 -184 -210
-17 -19 -56 -64 -86 -100 -30 -36 -57 -67 -60 -70 -4 -3 -48 -54 -99 -115 -51
-60 -107 -126 -125 -146 -34 -39 -33 -38 -191 -224 -180 -211 -557 -663 -755
-905 -102 -124 -188 -226 -192 -228 -5 -2 -8 -8 -8 -13 0 -5 -13 -24 -29 -42
-24 -27 -444 -548 -514 -640 -12 -15 -28 -34 -35 -42 -11 -13 -84 -105 -166
-210 -60 -76 -223 -284 -252 -321 -62 -77 -104 -134 -100 -134 3 0 55 60 117
132 62 73 115 135 118 138 4 3 33 37 66 75 80 94 401 461 441 505 17 19 91
103 164 185 73 83 170 191 215 240 45 50 128 142 185 205 57 63 118 131 137
150 60 63 127 137 172 186 63 69 213 231 301 324 41 44 110 117 152 162 93
100 154 164 397 417 102 107 238 249 301 315 188 196 1527 1533 1771 1767 267
257 421 405 509 489 36 34 123 116 193 183 71 67 152 144 180 171 29 26 79 74
112 105 33 31 164 153 290 270 127 118 248 231 270 252 22 21 54 51 70 65 17
15 79 72 140 128 60 55 141 130 180 165 38 35 90 83 115 106 120 112 745 675
980 884 146 129 281 249 300 267 68 63 208 184 212 184 2 0 56 -57 119 -127
109 -122 161 -179 329 -356 67 -71 523 -525 590 -587 90 -85 428 -387 510
-457 408 -348 957 -771 1285 -988 33 -22 62 -43 65 -46 10 -12 222 -149 230
-149 5 0 10 -3 12 -8 6 -15 494 -319 696 -434 71 -40 99 -56 150 -87 29 -17
55 -31 57 -31 2 0 30 -15 62 -34 143 -83 717 -376 938 -478 241 -111 276 -127
280 -128 6 -1 90 -37 144 -61 24 -11 66 -29 94 -40 28 -11 69 -28 91 -38 46
-20 108 -45 116 -47 6 -1 30 -11 85 -34 52 -22 109 -45 115 -46 3 0 12 -4 20
-7 22 -9 134 -51 140 -52 3 -1 21 -8 41 -17 20 -9 47 -19 60 -22 13 -4 33 -11
44 -16 20 -9 191 -70 210 -74 6 -2 17 -6 25 -9 46 -18 510 -169 530 -172 3 0
39 -11 80 -24 41 -13 82 -25 90 -27 8 -2 56 -15 105 -29 50 -14 98 -28 108
-30 10 -2 27 -7 37 -10 10 -3 27 -8 37 -10 10 -3 123 -32 251 -65 128 -33 247
-62 265 -65 18 -3 50 -11 72 -17 22 -5 49 -12 60 -14 11 -2 31 -6 45 -10 35
-8 109 -23 144 -30 16 -3 32 -7 36 -9 3 -2 29 -7 56 -11 27 -3 52 -8 55 -10 3
-2 19 -6 35 -8 28 -6 52 -10 104 -21 14 -2 39 -7 55 -10 17 -3 41 -7 55 -10
13 -2 40 -7 60 -10 34 -5 46 -7 110 -19 14 -3 43 -8 65 -11 22 -3 47 -7 55
-10 8 -2 38 -7 65 -10 90 -13 170 -24 210 -31 17 -3 41 -7 55 -9 112 -14 138
-18 160 -20 14 -2 50 -6 80 -10 30 -4 66 -8 80 -10 84 -10 132 -15 185 -21 33
-3 74 -8 90 -10 17 -1 59 -5 95 -8 36 -3 92 -8 125 -11 441 -39 717 -50 1315
-50 453 0 686 5 905 20 28 1 97 6 155 10 58 4 121 8 140 10 19 2 73 6 120 10
47 3 101 8 120 10 19 2 62 6 95 9 33 3 80 8 105 11 25 3 68 7 95 10 28 3 61 7
75 10 14 2 54 7 90 10 36 4 74 9 85 11 11 2 40 6 65 9 25 3 56 7 70 9 14 2 49
7 79 11 30 3 63 9 75 11 12 3 39 7 61 9 22 3 51 7 65 10 14 2 41 7 60 10 19 3
60 10 90 15 30 5 71 12 90 15 49 8 81 14 110 20 14 3 39 7 55 9 17 3 66 12
110 21 128 27 144 30 200 40 17 3 37 8 45 10 8 2 31 7 50 10 19 3 43 8 52 11
9 3 27 7 40 10 36 8 61 13 88 19 14 4 36 8 50 11 14 3 115 28 225 55 110 28
207 52 215 54 8 2 40 11 70 19 30 8 91 24 135 36 44 11 94 25 110 31 17 5 98
29 180 53 83 25 179 54 215 66 36 12 72 23 80 25 8 2 16 4 18 5 1 2 5 3 10 4
32 6 526 178 659 229 99 38 120 46 131 48 4 0 16 6 27 12 11 6 25 12 30 13 33
6 594 242 767 323 35 16 86 39 113 51 74 33 596 293 700 348 873 464 1651 976
2415 1587 190 153 489 403 545 456 11 11 49 45 85 77 243 215 790 745 888 859
10 12 70 77 134 145 295 315 668 756 936 1108 23 30 45 60 50 65 10 12 134
180 189 255 139 190 424 611 542 800 19 30 46 74 60 96 26 42 34 55 130 214
28 47 56 92 61 100 6 8 17 29 25 45 9 17 21 39 28 50 153 244 537 990 716
1393 99 223 123 278 125 287 1 6 10 28 20 50 10 22 22 49 27 60 46 106 58 136
58 138 0 1 5 16 12 32 44 112 150 388 153 400 2 6 8 23 14 38 7 16 12 34 12
41 0 6 4 16 10 22 5 5 11 18 13 29 1 11 6 26 10 32 5 7 10 21 12 30 2 10 33
102 69 206 35 103 62 187 59 187 -3 0 -1 6 4 13 6 6 14 26 18 42 5 17 9 32 10
35 27 88 36 121 36 125 -1 3 6 21 14 41 8 20 17 46 20 58 2 11 14 53 26 91 28
96 106 377 113 410 1 6 5 19 9 30 3 11 8 31 11 45 3 14 16 70 31 125 14 55 28
112 30 127 3 15 9 37 14 50 5 13 9 26 9 31 0 4 3 20 6 35 4 15 9 38 12 52 6
28 11 54 19 90 4 14 8 36 11 50 3 14 11 53 19 88 8 34 17 74 20 90 3 15 7 38
10 52 3 14 7 36 10 50 3 14 7 35 9 46 2 12 7 37 10 55 3 19 8 45 11 59 2 14 7
36 10 50 2 14 7 39 9 55 7 40 15 84 21 115 3 14 7 41 10 60 3 19 7 46 10 60 3
14 7 42 10 64 3 21 7 50 10 65 3 15 7 43 9 62 11 82 18 135 22 154 2 11 6 40
9 65 3 25 8 60 10 78 7 46 18 139 29 242 3 25 8 62 10 83 3 21 8 72 12 114 3
42 7 84 9 94 2 9 6 57 10 105 4 49 8 105 10 124 2 19 6 82 10 140 4 58 8 128
10 155 15 196 20 452 20 925 0 580 -8 811 -39 1200 -20 243 -24 282 -31 350
-4 30 -8 71 -10 90 -2 19 -6 59 -9 88 -3 28 -8 74 -11 100 -3 27 -8 59 -10 72
-2 13 -7 46 -10 74 -2 28 -7 61 -9 73 -3 12 -7 46 -10 75 -4 29 -8 64 -11 78
-3 14 -7 43 -10 65 -3 22 -7 49 -9 60 -2 11 -7 40 -10 65 -3 25 -8 56 -11 70
-2 13 -7 42 -10 63 -4 21 -13 75 -21 120 -8 45 -17 91 -18 102 -8 47 -26 142
-31 165 -3 14 -8 39 -10 55 -3 17 -8 37 -10 45 -2 8 -7 29 -9 45 -3 17 -17 85
-31 150 -15 66 -28 129 -31 140 -2 11 -6 31 -9 45 -4 14 -8 35 -11 47 -2 12
-9 34 -14 48 -5 14 -8 25 -5 25 2 0 -1 15 -6 33 -5 17 -12 46 -15 62 -3 17 -8
33 -12 37 -4 4 -97 -16 -207 -43 -110 -28 -209 -52 -220 -54 -11 -1 -20 -3
-20 -4 0 -2 -7 -4 -15 -6 -16 -4 -48 -12 -80 -20 -11 -3 -29 -7 -41 -10 -11
-2 -29 -7 -39 -10 -10 -3 -27 -8 -37 -10 -10 -2 -63 -16 -118 -30 -55 -15
-107 -28 -115 -30 -8 -2 -42 -11 -75 -20 -33 -9 -96 -25 -140 -36 -44 -11 -87
-23 -95 -26 -8 -4 -19 -5 -23 -4 -8 1 -5 -31 18 -166 2 -16 6 -41 9 -58 15
-101 19 -122 22 -139 2 -11 6 -42 9 -70 3 -28 8 -62 10 -76 6 -38 14 -99 21
-165 3 -33 8 -68 9 -77 3 -15 9 -67 21 -183 1 -16 6 -61 9 -100 4 -38 8 -86
10 -105 2 -19 7 -69 10 -110 3 -41 8 -97 10 -125 47 -572 51 -1429 10 -2030
-4 -60 -9 -128 -10 -150 -1 -22 -6 -78 -10 -125 -4 -47 -9 -101 -10 -120 -3
-45 -17 -175 -31 -295 -3 -27 -7 -66 -9 -85 -1 -19 -6 -60 -10 -90 -4 -30 -9
-66 -11 -80 -1 -14 -5 -41 -8 -60 -3 -19 -8 -55 -11 -80 -3 -25 -7 -56 -10
-70 -2 -14 -7 -45 -10 -70 -7 -55 -14 -97 -20 -130 -6 -34 -14 -80 -19 -121
-3 -19 -8 -45 -10 -59 -3 -13 -8 -42 -11 -65 -3 -22 -8 -47 -10 -55 -2 -8 -7
-31 -10 -50 -3 -19 -8 -46 -10 -60 -3 -14 -7 -36 -10 -50 -3 -14 -7 -36 -10
-50 -6 -26 -12 -57 -20 -100 -3 -14 -7 -36 -10 -50 -3 -14 -7 -36 -10 -50 -10
-50 -13 -66 -23 -105 -6 -22 -13 -53 -16 -70 -3 -16 -7 -39 -10 -50 -2 -11
-10 -42 -16 -70 -6 -27 -14 -58 -16 -67 -2 -10 -6 -28 -9 -39 -11 -51 -50
-204 -82 -324 -19 -71 -37 -137 -39 -145 -8 -33 -24 -89 -49 -175 -14 -49 -27
-94 -29 -100 -1 -5 -15 -50 -30 -100 -16 -49 -29 -94 -31 -100 -1 -5 -5 -17
-8 -25 -3 -8 -20 -58 -36 -110 -23 -71 -30 -84 -25 -50 6 50 11 85 17 115 3
11 8 40 12 65 4 25 9 54 11 65 2 11 6 38 9 60 3 22 7 49 9 61 2 12 7 45 11 74
4 29 8 62 11 73 2 11 6 45 10 76 7 71 10 94 18 156 4 28 9 73 11 100 3 28 7
66 10 85 2 19 7 71 11 115 3 44 7 98 10 120 3 35 9 113 19 275 26 397 26 1336
0 1580 -2 19 -7 73 -10 120 -4 47 -8 101 -10 120 -2 19 -6 71 -10 115 -4 44
-8 96 -10 115 -2 19 -6 71 -10 115 -4 44 -8 98 -11 120 -2 22 -6 65 -9 95 -2
30 -8 84 -11 120 -7 72 -9 83 -18 190 -4 41 -9 86 -11 100 -2 14 -7 54 -11 90
-3 36 -7 76 -9 90 -2 14 -6 50 -9 80 -4 30 -8 71 -11 90 -2 19 -7 59 -11 89
-3 30 -8 63 -10 75 -2 12 -6 44 -9 71 -4 28 -8 64 -11 80 -10 60 -13 81 -19
134 -4 30 -8 62 -10 72 -2 9 -7 39 -11 66 -3 26 -8 57 -10 68 -10 53 -14 74
-19 109 -2 21 -7 46 -9 55 -3 9 -7 32 -10 51 -3 19 -8 45 -10 56 -2 12 -7 37
-10 55 -3 19 -8 45 -11 59 -5 26 -11 53 -21 105 -6 33 -33 161 -40 188 -2 9
-6 27 -9 40 -2 12 -7 34 -11 49 -3 15 -5 30 -5 33 0 2 -6 23 -14 45 -8 22 -12
40 -10 40 3 0 0 11 -5 26 -6 14 -12 37 -15 52 -3 15 -12 52 -20 82 -9 30 -17
62 -19 70 -2 8 -10 35 -17 60 -7 25 -13 50 -15 56 -5 29 -77 250 -83 255 -3 4
-42 -4 -86 -17 -44 -14 -84 -26 -90 -28 -5 -1 -30 -9 -55 -16 -25 -7 -49 -14
-55 -16 -22 -4 -249 -75 -252 -77 -1 -2 13 -41 33 -88 19 -46 38 -91 41 -99 7
-22 19 -51 33 -85 8 -16 14 -34 16 -40 2 -9 78 -213 91 -245 3 -8 7 -19 9 -25
5 -18 55 -160 63 -180 8 -19 75 -225 76 -235 0 -3 13 -43 27 -90 22 -70 46
-150 65 -215 15 -54 95 -359 103 -395 5 -19 11 -45 14 -57 3 -13 8 -32 11 -44
2 -11 6 -28 9 -37 3 -9 7 -28 10 -42 5 -29 22 -104 30 -140 4 -14 8 -36 11
-50 8 -42 15 -74 20 -100 3 -14 8 -41 11 -60 3 -19 9 -51 14 -70 6 -20 12 -54
15 -75 3 -22 7 -51 10 -65 9 -45 22 -120 30 -176 3 -21 8 -48 9 -59 4 -19 9
-52 22 -145 3 -25 7 -54 9 -65 7 -44 20 -154 30 -245 4 -36 8 -76 10 -90 5
-45 17 -174 20 -205 29 -348 39 -591 39 -990 0 -296 -7 -576 -19 -725 -2 -25
-6 -88 -10 -140 -3 -52 -8 -108 -9 -125 -2 -16 -7 -66 -11 -110 -3 -44 -8 -95
-11 -113 -2 -18 -6 -56 -9 -85 -3 -28 -8 -68 -10 -88 -3 -20 -7 -54 -10 -75
-9 -83 -24 -194 -41 -289 -6 -32 -8 -49 -19 -130 -14 -100 -197 -613 -317
-885 -11 -25 -27 -61 -35 -80 -33 -76 -46 -105 -182 -380 -153 -312 -189 -379
-324 -610 -49 -85 -95 -164 -101 -175 -6 -11 -14 -22 -17 -25 -3 -3 -30 -45
-59 -95 -30 -49 -60 -94 -67 -98 -7 -4 -13 -13 -13 -18 0 -15 -325 -488 -350
-509 -3 -3 -14 -18 -23 -33 -10 -16 -27 -38 -37 -50 -10 -12 -77 -96 -149
-187 -72 -91 -137 -172 -144 -180 -37 -44 -153 -178 -169 -195 -10 -11 -48
-54 -85 -95 -811 -900 -1791 -1648 -2878 -2194 -174 -88 -219 -109 -369 -176
-39 -17 -84 -37 -100 -45 -39 -18 -212 -89 -293 -121 -35 -13 -92 -35 -127
-49 -36 -14 -71 -25 -78 -25 -8 0 -18 -4 -24 -9 -14 -13 -494 -172 -594 -196
-14 -3 -195 -51 -230 -61 -15 -4 -138 -32 -173 -39 -10 -2 -26 -6 -35 -9 -9
-3 -32 -8 -51 -11 -19 -3 -37 -7 -40 -9 -3 -2 -22 -7 -41 -10 -19 -3 -46 -8
-60 -11 -14 -3 -40 -8 -59 -11 -18 -3 -43 -8 -55 -10 -11 -2 -36 -7 -55 -10
-18 -3 -43 -8 -55 -10 -11 -2 -41 -7 -66 -10 -25 -3 -52 -7 -60 -9 -8 -2 -35
-7 -60 -10 -25 -3 -63 -8 -85 -12 -22 -3 -51 -6 -65 -8 -14 -1 -47 -5 -75 -9
-83 -11 -175 -20 -325 -32 -512 -42 -1119 -35 -1625 21 -27 3 -70 7 -94 10
-24 2 -61 7 -82 10 -43 6 -94 12 -154 20 -22 2 -49 7 -60 9 -11 2 -40 7 -65
10 -25 3 -55 8 -66 10 -12 2 -39 7 -60 10 -32 5 -80 14 -114 21 -3 1 -25 5
-50 9 -55 10 -57 10 -155 31 -44 9 -89 19 -100 21 -46 9 -63 13 -120 27 -33 9
-71 18 -85 21 -14 3 -70 17 -125 31 -149 39 -155 41 -219 60 -32 9 -64 18 -70
20 -6 1 -18 5 -26 8 -8 3 -53 17 -100 31 -181 54 -541 180 -655 231 -16 7 -70
30 -120 50 -49 20 -108 45 -130 55 -22 9 -65 28 -95 41 -124 54 -535 264 -683
348 -87 50 -162 91 -168 91 -5 0 -9 3 -9 8 0 4 -17 16 -37 27 -21 11 -65 38
-98 59 -108 70 -260 171 -265 176 -3 3 -41 30 -85 60 -193 131 -516 390 -690
551 -16 15 -48 44 -70 65 -461 423 -889 959 -1199 1502 -95 166 -319 607 -341
672 -3 9 -26 64 -42 100 -8 19 -19 44 -24 55 -4 11 -23 56 -40 100 -17 44 -36
91 -42 105 -6 14 -11 27 -11 30 -1 3 -9 28 -19 55 -21 56 -25 68 -24 75 0 3
-5 15 -11 27 -11 20 -85 242 -102 308 -5 17 -20 73 -35 125 -15 52 -28 103
-30 113 -2 10 -7 27 -10 37 -6 19 -12 46 -21 90 -3 14 -7 33 -10 42 -3 9 -7
27 -10 40 -6 29 -22 104 -29 138 -2 14 -7 38 -11 53 -3 16 -7 38 -9 50 -4 31
-14 98 -20 127 -3 14 -7 43 -10 65 l-6 40 243 167 c134 92 315 217 403 277 88
60 165 113 171 118 5 4 18 13 27 18 18 11 217 146 450 304 81 56 152 101 157
101 5 0 13 6 17 14 7 12 22 22 99 64 13 7 24 17 24 23 0 5 4 9 9 9 5 0 132 82
282 183 245 162 511 337 844 554 60 39 115 76 122 82 7 6 15 11 18 11 6 0 177
112 185 121 3 3 12 8 20 11 17 7 208 131 227 147 7 6 14 11 17 11 3 0 232 144
451 285 28 17 95 60 150 94 55 34 165 103 245 153 310 194 350 218 490 305
153 95 408 251 438 268 9 6 202 121 427 256 226 135 471 282 545 326 133 78
351 206 380 223 8 5 43 25 77 45 34 20 66 36 70 36 4 0 15 6 23 14 8 7 33 23
55 35 33 19 367 209 595 339 30 18 71 39 90 49 19 9 37 20 38 25 2 4 8 7 13 7
4 0 43 20 85 45 41 25 77 45 79 45 2 0 34 17 72 39 63 35 127 71 231 128 23
12 63 35 90 49 26 15 76 43 112 62 106 57 134 74 148 84 6 6 12 7 12 3 0 -4 6
-3 13 3 6 5 32 21 57 34 82 45 323 175 425 228 55 29 132 70 170 90 369 195
475 249 476 242 0 -4 2 -14 4 -22 11 -53 25 -159 30 -230 5 -64 5 -379 1 -430
-10 -103 -17 -171 -21 -188 -2 -11 -6 -35 -9 -53 -6 -35 -16 -86 -20 -104 -2
-5 -6 -23 -10 -40 -73 -294 -219 -518 -440 -673 -52 -37 -170 -105 -186 -107
-3 0 -30 -10 -60 -22 -62 -25 -209 -70 -255 -78 -16 -2 -41 -7 -55 -10 -23 -5
-45 -8 -125 -20 -168 -25 -355 -38 -760 -50 -296 -9 -543 -25 -625 -40 -14 -3
-43 -7 -65 -10 -22 -3 -51 -7 -65 -10 -14 -3 -38 -7 -55 -9 -30 -5 -67 -11
-115 -21 -13 -2 -42 -7 -64 -11 -22 -3 -43 -7 -46 -9 -3 -2 -26 -6 -50 -10
-25 -3 -63 -11 -85 -17 -22 -5 -49 -12 -60 -14 -11 -2 -31 -6 -45 -9 -14 -4
-36 -8 -50 -11 -14 -3 -33 -7 -42 -10 -9 -3 -25 -7 -35 -9 -10 -2 -54 -14 -98
-25 -44 -11 -87 -22 -95 -24 -38 -9 -137 -38 -160 -47 -14 -5 -35 -11 -46 -13
-22 -4 -226 -71 -254 -83 -8 -3 -17 -7 -20 -8 -21 -5 -121 -40 -145 -50 -16
-8 -61 -26 -100 -41 -105 -40 -206 -85 -365 -162 -153 -73 -431 -230 -450
-252 -3 -4 -12 -9 -20 -12 -8 -3 -67 -43 -130 -88 -344 -245 -610 -515 -807
-817 -61 -94 -187 -315 -188 -333 0 -3 -6 -14 -12 -25 -6 -11 -12 -24 -13 -30
-1 -5 -7 -23 -14 -40 -30 -70 -40 -95 -71 -190 -30 -87 -74 -254 -90 -337 -3
-16 -7 -40 -10 -55 -3 -16 -8 -41 -12 -58 -3 -16 -7 -39 -9 -50 -2 -11 -5 -36
-8 -55 -3 -19 -8 -57 -12 -85 -3 -27 -7 -63 -9 -80 -25 -204 -25 -549 0 -757
11 -102 44 -298 51 -309 2 -4 6 -20 8 -36 5 -43 44 -191 64 -243 3 -8 6 -17 7
-20 3 -12 27 -86 32 -100 4 -8 7 -18 7 -22 1 -3 4 -10 9 -14 4 -4 7 -13 7 -21
0 -7 8 -32 19 -56 10 -23 26 -62 36 -87 37 -90 173 -348 244 -459 171 -271
386 -523 656 -771 33 -30 72 -64 86 -75 184 -141 237 -180 314 -232 102 -68
267 -163 368 -211 97 -47 227 -101 227 -95 0 3 6 1 13 -5 32 -26 767 -278 897
-307 8 -2 62 -18 120 -35 58 -16 114 -32 125 -34 11 -2 56 -14 100 -25 44 -12
92 -24 107 -26 15 -3 38 -9 52 -15 15 -5 26 -8 26 -5 0 2 15 -1 33 -6 17 -5
43 -11 57 -14 14 -3 36 -7 50 -10 46 -10 125 -26 150 -31 14 -2 36 -7 50 -9
62 -13 77 -16 105 -21 17 -2 42 -7 58 -9 15 -3 39 -7 55 -10 15 -2 45 -7 67
-9 22 -3 51 -8 65 -11 13 -2 49 -7 80 -10 31 -3 65 -7 77 -9 20 -4 108 -15
178 -21 17 -2 61 -6 99 -10 37 -3 91 -8 120 -10 72 -6 437 -19 521 -19 76 0
432 13 505 19 61 4 188 15 225 19 17 2 57 7 90 10 33 4 71 9 85 11 14 2 45 6
70 9 25 3 56 8 70 11 13 2 42 7 65 10 70 10 97 15 205 36 131 25 128 25 213
44 12 3 33 7 47 10 14 3 70 16 125 31 55 14 108 27 118 29 64 14 418 120 477
142 8 3 24 8 34 10 11 2 24 7 30 12 6 4 38 16 71 26 33 10 80 27 105 37 25 11
52 21 60 23 18 3 308 121 385 156 28 12 55 23 60 24 31 7 597 285 735 361 200
109 562 330 568 345 2 5 8 9 14 9 10 0 227 148 377 257 131 95 471 369 576
464 22 20 69 62 105 94 236 210 609 602 825 868 64 78 124 151 133 162 65 79
242 328 345 484 246 372 406 663 612 1116 103 225 296 767 330 925 1 8 10 40
19 71 16 53 20 71 32 126 2 12 8 33 13 45 5 13 9 26 9 31 1 9 23 116 37 180 3
12 7 33 10 47 3 14 7 35 9 46 2 12 7 37 10 55 3 19 8 45 11 59 2 13 7 40 10
60 3 20 8 47 10 60 3 14 7 41 10 60 2 19 7 55 10 80 14 98 23 175 31 260 3 30
7 71 9 90 26 254 26 872 0 1175 -5 63 -15 157 -19 195 -3 19 -7 60 -11 90 -3
30 -8 66 -10 80 -2 14 -7 45 -10 70 -10 71 -41 254 -61 360 -2 14 -7 41 -10
60 -3 19 -8 38 -10 41 -2 3 -6 19 -8 35 -10 50 -14 68 -25 109 -6 22 -13 58
-17 80 -3 22 -8 43 -11 47 -2 5 -6 17 -9 28 -5 23 -14 60 -18 75 -2 6 -6 24
-11 40 -73 287 -239 786 -334 1005 -8 19 -15 37 -16 40 -1 3 -7 18 -13 33 -7
16 -12 30 -12 31 0 2 -14 34 -32 72 -36 78 -33 71 -43 101 -11 34 -239 489
-284 568 -22 39 -44 77 -48 85 -14 26 -93 164 -111 192 -51 79 -87 145 -87
157 0 8 7 15 15 17 8 1 72 23 143 48 70 24 128 45 130 44 5 -1 123 35 132 40
6 4 15 7 20 8 8 2 100 32 333 109 7 3 16 5 20 6 4 1 57 20 117 41 61 22 117
41 125 43 18 4 179 54 200 62 8 3 20 7 27 9 16 3 150 43 183 54 52 18 455 135
500 145 8 2 15 4 15 5 0 1 7 3 15 5 8 1 35 8 60 15 25 7 81 21 125 30 44 10
116 28 160 40 44 11 87 22 95 24 8 2 62 16 120 31 58 15 112 28 120 30 26 6
128 30 173 41 12 3 33 7 47 10 14 3 33 7 42 10 9 3 25 7 35 9 215 47 299 68
308 75 9 7 26 11 90 24 11 3 40 9 65 15 25 5 59 12 75 15 17 3 41 8 55 11 67
15 79 18 190 40 41 8 85 16 96 19 12 2 37 7 55 10 19 3 45 8 59 11 14 2 36 7
50 10 14 2 39 7 55 10 17 3 40 7 51 9 22 4 77 14 124 21 14 3 36 7 50 9 13 3
42 8 65 11 22 3 47 8 55 10 8 2 35 7 60 10 25 2 55 7 66 9 29 6 93 16 127 21
52 7 112 16 137 20 14 2 45 7 70 10 25 3 56 8 70 10 14 2 46 6 72 9 26 3 62 8
80 10 53 8 131 18 158 21 14 1 52 6 85 10 33 4 74 8 90 10 109 10 173 17 195
20 14 2 61 7 105 10 44 4 96 8 115 10 19 2 73 7 120 10 47 4 105 8 130 10 41
3 207 13 340 20 119 7 573 19 715 19 142 0 613 -12 720 -19 110 -6 263 -16
310 -20 28 -2 83 -7 124 -10 l73 -6 -25 43 c-13 24 -34 60 -46 82 -24 42 -114
218 -116 226 -2 7 -23 57 -42 100 -8 19 -19 44 -23 55 -4 11 -13 34 -20 50 -7
17 -19 50 -27 75 -36 114 -65 207 -68 223 -2 10 -7 27 -10 37 -3 10 -8 29 -11
42 -3 13 -7 32 -9 43 -3 11 -7 30 -9 43 -3 13 -7 31 -10 40 -4 15 -8 38 -21
117 -1 11 -6 43 -10 70 -3 28 -8 61 -11 75 -12 76 -18 198 -18 390 0 234 8
342 40 545 3 22 7 45 7 50 1 6 -2 9 -8 8 -5 0 -48 -4 -95 -8 -136 -10 -219
-18 -420 -40 -109 -12 -136 -15 -180 -21 -25 -3 -56 -7 -70 -9 -94 -11 -147
-18 -161 -20 -9 -2 -40 -6 -70 -10 -30 -3 -67 -9 -84 -11 -16 -3 -45 -7 -64
-10 -19 -2 -47 -6 -63 -9 -15 -3 -41 -7 -57 -10 -16 -3 -46 -7 -67 -10 -22 -3
-50 -7 -64 -10 -14 -3 -41 -7 -60 -10 -19 -3 -46 -7 -60 -10 -14 -3 -41 -7
-60 -10 -19 -3 -46 -7 -60 -10 -14 -3 -38 -7 -55 -10 -16 -2 -40 -6 -51 -9
-12 -2 -37 -7 -55 -10 -19 -3 -45 -8 -59 -11 -14 -3 -38 -8 -55 -10 -16 -3
-64 -13 -105 -21 -41 -9 -84 -17 -95 -18 -11 -2 -56 -11 -100 -20 -44 -9 -90
-18 -103 -21 -13 -2 -31 -6 -40 -9 -9 -3 -28 -7 -42 -10 -14 -3 -50 -10 -80
-16 -30 -6 -66 -13 -80 -16 -14 -3 -33 -7 -42 -10 -16 -5 -30 -8 -80 -19 -13
-2 -36 -8 -53 -12 -16 -4 -32 -7 -35 -8 -3 -1 -21 -5 -40 -10 -19 -5 -42 -10
-50 -11 -32 -5 -81 -17 -383 -94 -172 -43 -333 -86 -359 -94 -27 -8 -48 -12
-48 -10 0 2 -12 -1 -27 -7 -16 -6 -36 -13 -45 -15 -33 -7 -52 -13 -163 -44
-142 -39 -250 -71 -370 -106 -27 -9 -63 -19 -80 -23 -30 -8 -48 -14 -230 -71
-55 -18 -107 -33 -116 -35 -16 -3 -104 -31 -437 -141 -112 -36 -204 -65 -206
-63 -2 2 -51 99 -110 214 -217 431 -410 773 -674 1195 -108 173 -417 639 -431
650 -4 3 -15 19 -25 35 -19 30 -251 349 -268 370 -5 5 -43 55 -84 110 -100
133 -328 420 -344 435 -3 3 -35 41 -70 85 -36 44 -70 85 -76 90 -5 6 -39 44
-74 85 -372 434 -873 950 -1294 1331 -28 25 -76 68 -106 95 -353 320 -1035
865 -1325 1059 -33 22 -62 43 -65 47 -8 10 -622 419 -640 426 -8 3 -19 10 -25
14 -28 23 -431 268 -441 268 -2 0 -33 17 -67 39 -34 21 -107 63 -162 93 -55
31 -116 64 -135 75 -19 11 -69 37 -110 59 -41 21 -76 42 -78 47 -2 4 -10 7
-17 7 -8 0 -36 13 -62 28 -94 55 -568 285 -805 391 -27 11 -68 30 -93 41 -25
11 -64 29 -87 39 -100 44 -202 84 -204 79 0 -2 -7 2 -15 9 -12 9 -350 148
-384 157 -5 2 -23 8 -40 15 -106 42 -372 138 -405 147 -8 2 -107 35 -220 72
-113 38 -209 70 -215 72 -5 1 -46 14 -90 27 -97 30 -274 83 -295 88 -8 2 -58
16 -110 30 -100 28 -273 74 -302 81 -10 2 -27 6 -39 9 -11 2 -29 7 -39 10 -10
3 -27 7 -37 9 -10 2 -38 9 -63 16 -25 7 -56 14 -70 16 -14 3 -33 7 -42 10 -25
7 -60 15 -89 19 -14 2 -39 9 -55 15 -16 6 -24 7 -19 2z m-1295 -5007 c96 -4
193 -8 215 -10 22 -1 90 -5 150 -9 61 -4 126 -9 145 -11 19 -2 70 -6 113 -10
44 -4 86 -8 95 -10 10 -1 53 -6 97 -10 44 -4 88 -9 99 -11 10 -2 44 -6 75 -10
31 -3 64 -8 75 -10 10 -2 44 -6 75 -10 31 -3 63 -7 71 -9 8 -1 35 -6 60 -10
25 -3 59 -9 75 -11 17 -3 44 -7 60 -10 17 -2 41 -6 55 -9 25 -5 60 -11 115
-20 17 -2 41 -7 55 -10 14 -2 36 -7 50 -9 26 -5 219 -44 255 -52 11 -2 31 -6
45 -9 51 -10 66 -13 105 -23 22 -6 51 -13 65 -16 14 -3 34 -7 45 -10 51 -14
103 -25 134 -31 19 -3 41 -10 50 -14 9 -5 30 -11 46 -14 17 -3 39 -8 50 -11
71 -19 102 -27 115 -30 8 -2 56 -16 105 -31 79 -24 121 -35 175 -49 29 -8 505
-167 525 -175 11 -5 34 -14 50 -19 17 -6 39 -14 50 -18 11 -4 22 -8 25 -9 3
-1 14 -5 25 -10 11 -5 81 -32 155 -60 74 -28 144 -55 155 -60 11 -5 22 -9 25
-10 3 -1 25 -11 50 -22 25 -11 56 -24 70 -28 14 -4 30 -11 35 -15 6 -4 39 -20
75 -35 304 -127 810 -383 1159 -587 74 -43 138 -78 142 -78 5 0 9 -4 9 -9 0
-5 8 -11 18 -15 9 -3 31 -15 47 -26 17 -10 42 -26 57 -35 24 -13 268 -168 308
-195 479 -324 969 -704 1300 -1006 25 -23 81 -74 125 -114 93 -85 77 -70 324
-314 105 -104 191 -192 191 -197 0 -5 4 -9 8 -9 8 0 125 -124 259 -275 25 -27
59 -66 77 -85 55 -61 188 -220 301 -360 60 -74 115 -143 123 -152 14 -16 10
-20 -44 -44 -32 -14 -79 -35 -104 -46 -92 -41 -146 -65 -177 -77 l-32 -13
-178 179 c-203 203 -374 360 -553 509 -244 202 -390 315 -587 454 -70 49 -139
99 -153 110 -14 11 -30 20 -37 20 -6 0 -13 4 -15 8 -4 12 -155 112 -168 112
-5 0 -10 4 -10 8 0 5 -12 15 -27 22 -16 8 -35 20 -44 27 -25 21 -180 113 -189
113 -5 0 -10 4 -12 8 -3 7 -50 37 -163 102 -16 9 -52 31 -80 47 -27 16 -81 47
-120 68 -38 21 -88 49 -110 61 -115 64 -530 275 -680 346 -152 72 -297 138
-301 138 -2 0 -38 16 -80 35 -41 19 -77 35 -79 35 -2 0 -16 5 -32 12 -15 6
-30 12 -33 13 -3 0 -15 6 -27 13 -13 7 -23 10 -23 6 0 -3 -6 -2 -12 4 -10 8
-164 72 -188 77 -3 1 -14 5 -25 10 -54 22 -122 47 -135 50 -8 2 -36 12 -63 24
-26 11 -48 20 -50 20 -1 0 -9 2 -17 5 -44 16 -386 127 -450 146 -41 12 -94 28
-117 36 -23 7 -54 16 -68 18 -15 3 -48 12 -73 20 -26 8 -58 18 -72 20 -14 3
-70 17 -125 32 -55 14 -108 28 -118 30 -10 2 -26 5 -35 8 -9 3 -28 7 -42 10
-14 2 -65 13 -113 25 -49 12 -101 23 -115 26 -15 3 -38 7 -52 10 -14 3 -40 8
-59 11 -18 3 -43 8 -55 10 -26 6 -64 14 -91 18 -11 2 -47 9 -80 15 -33 6 -73
12 -90 15 -16 3 -48 8 -70 11 -22 4 -56 8 -75 11 -19 2 -46 6 -60 9 -22 4 -64
11 -140 20 -14 2 -45 6 -70 9 -25 4 -65 9 -90 11 -25 2 -63 6 -85 9 -44 6
-160 17 -215 21 -19 2 -75 6 -125 10 -342 27 -729 34 -1120 21 -121 -4 -242
-9 -270 -11 -27 -2 -90 -6 -140 -10 -130 -8 -308 -25 -425 -40 -19 -2 -55 -7
-80 -9 -25 -3 -65 -8 -90 -12 -25 -3 -56 -7 -70 -9 -40 -5 -123 -17 -145 -21
-10 -2 -37 -6 -60 -9 -42 -6 -77 -12 -110 -19 -11 -2 -40 -7 -65 -11 -25 -4
-54 -9 -65 -11 -11 -2 -31 -6 -45 -9 -43 -8 -74 -14 -100 -20 -26 -6 -57 -12
-100 -20 -53 -10 -72 -14 -88 -19 -9 -3 -32 -8 -51 -11 -19 -3 -37 -7 -40 -9
-3 -2 -24 -7 -46 -11 -46 -8 -70 -13 -70 -15 0 -1 -7 -3 -15 -5 -8 -2 -25 -6
-37 -9 -13 -3 -32 -8 -43 -10 -11 -3 -48 -12 -83 -21 -34 -9 -70 -18 -79 -21
-35 -8 -54 -13 -158 -43 -58 -16 -121 -35 -140 -41 -19 -6 -45 -13 -57 -16
-12 -2 -54 -16 -95 -30 -40 -14 -80 -27 -88 -28 -8 -2 -82 -27 -165 -55 -82
-29 -154 -53 -160 -55 -5 -2 -23 -8 -38 -14 -16 -7 -30 -12 -33 -12 -8 0 -253
-96 -359 -141 -11 -4 -65 -27 -120 -50 -55 -23 -109 -46 -120 -52 -11 -6 -22
-12 -25 -12 -40 -10 -524 -245 -690 -335 -52 -29 -124 -68 -160 -87 -110 -60
-155 -87 -158 -95 -2 -4 -11 -8 -20 -8 -8 0 -23 -6 -31 -13 -9 -8 -86 -56
-171 -107 -233 -140 -744 -488 -865 -587 -5 -5 -62 -49 -125 -98 -160 -123
-427 -347 -605 -506 -140 -126 -563 -542 -685 -674 -540 -584 -1052 -1270
-1455 -1950 -39 -66 -74 -127 -78 -135 -4 -8 -18 -33 -32 -55 -14 -22 -28 -47
-32 -55 -4 -8 -9 -17 -12 -20 -3 -3 -18 -27 -32 -55 -54 -104 -102 -190 -110
-199 -5 -6 -9 -18 -9 -27 0 -10 -4 -19 -8 -21 -11 -4 -302 -595 -302 -613 0
-2 -13 -32 -29 -67 -68 -148 -83 -184 -85 -193 -1 -5 -8 -20 -14 -32 -7 -13
-10 -23 -6 -23 3 0 2 -6 -4 -13 -12 -14 -100 -235 -163 -410 -22 -62 -53 -148
-69 -192 -27 -74 -71 -207 -76 -230 -1 -5 -18 -60 -38 -122 -20 -61 -39 -120
-41 -130 -2 -10 -8 -30 -14 -45 -6 -16 -9 -28 -6 -28 2 0 -3 -16 -11 -35 -8
-19 -12 -35 -9 -35 2 0 0 -12 -6 -27 -6 -16 -12 -35 -15 -43 -2 -8 -15 -60
-30 -115 -14 -55 -28 -108 -30 -118 -2 -10 -6 -27 -9 -37 -3 -10 -7 -27 -9
-37 -2 -11 -11 -48 -20 -84 -8 -35 -17 -75 -20 -89 -2 -14 -9 -43 -14 -65 -6
-22 -14 -53 -16 -70 -9 -46 -15 -75 -20 -93 -3 -9 -7 -33 -10 -52 -3 -19 -8
-46 -11 -60 -3 -14 -9 -50 -15 -80 -6 -30 -12 -66 -15 -80 -3 -13 -7 -40 -10
-60 -3 -20 -7 -45 -9 -55 -2 -11 -7 -40 -10 -65 -3 -25 -8 -54 -10 -65 -2 -11
-7 -40 -10 -65 -3 -25 -8 -54 -10 -65 -3 -17 -12 -83 -21 -165 -2 -14 -6 -52
-10 -85 -10 -84 -13 -110 -20 -190 -3 -38 -8 -86 -10 -105 -3 -31 -11 -133
-21 -285 -23 -352 -22 -959 1 -1275 1 -25 6 -90 10 -145 9 -127 9 -128 30
-340 9 -87 17 -161 20 -176 2 -9 6 -40 10 -70 3 -30 8 -66 10 -80 5 -25 8 -50
20 -133 3 -22 7 -52 10 -68 3 -15 7 -43 10 -60 7 -43 24 -137 30 -168 3 -14 9
-50 15 -80 11 -59 17 -91 25 -127 5 -21 7 -34 19 -95 3 -13 7 -34 11 -48 3
-14 7 -34 10 -45 2 -11 7 -31 10 -45 3 -14 8 -38 11 -54 2 -16 7 -32 9 -36 2
-4 7 -20 9 -36 11 -58 15 -74 20 -82 3 -5 7 -19 9 -33 3 -13 10 -44 17 -69 7
-25 14 -53 16 -64 2 -10 8 -33 14 -51 6 -18 12 -41 14 -51 5 -25 35 -132 46
-164 5 -14 20 -65 35 -115 14 -49 29 -97 32 -105 4 -8 7 -18 8 -22 2 -5 3 -9
5 -10 1 -2 3 -10 5 -19 2 -13 30 -97 53 -159 12 -35 11 -51 -6 -64 -104 -86
-361 -298 -611 -506 -169 -140 -314 -261 -324 -269 -16 -12 -25 4 -116 190
-128 266 -241 519 -321 724 -18 44 -38 94 -45 110 -12 27 -42 108 -105 280
-33 88 -159 464 -170 505 -5 19 -16 58 -24 85 -32 108 -70 239 -86 300 -6 22
-13 48 -15 58 -5 18 -12 45 -19 75 -5 17 -43 171 -52 207 -3 11 -7 31 -10 45
-3 14 -7 33 -10 42 -3 9 -7 27 -9 40 -4 19 -16 71 -20 88 -2 8 -16 74 -19 90
-1 8 -5 29 -9 45 -7 33 -14 73 -23 125 -3 19 -9 51 -14 70 -5 19 -11 53 -15
75 -3 23 -8 52 -11 65 -2 14 -7 41 -9 60 -3 19 -7 46 -10 60 -2 14 -7 41 -10
60 -3 19 -8 47 -10 61 -6 31 -15 102 -20 139 -5 50 -17 134 -21 154 -2 11 -6
48 -9 81 -3 33 -8 76 -11 95 -2 19 -7 62 -10 95 -3 33 -7 76 -9 95 -2 19 -7
76 -10 125 -4 50 -8 108 -10 130 -14 165 -20 385 -20 800 0 428 4 582 20 790
3 33 7 92 10 130 3 39 7 90 10 115 2 25 7 71 10 103 3 32 8 79 11 105 3 26 7
61 9 77 8 74 17 152 20 175 2 14 6 39 9 55 2 17 7 50 10 75 3 25 8 54 10 65 2
11 7 40 10 65 3 25 8 56 11 70 2 14 7 41 9 60 3 19 7 45 10 56 2 12 7 39 10
60 3 22 8 50 11 64 6 30 13 66 20 100 5 25 10 51 20 100 2 14 7 36 9 50 3 14
7 36 11 50 10 47 15 70 20 98 3 15 8 35 11 44 3 9 7 27 9 40 3 13 14 61 26
108 12 47 26 102 30 123 19 78 28 115 54 207 15 52 29 106 31 119 3 13 9 32
15 43 5 10 7 18 4 18 -2 0 1 17 9 38 8 20 24 71 36 112 12 41 36 116 52 165
16 50 31 97 33 105 2 8 12 39 24 68 11 28 18 52 15 52 -4 0 -2 6 4 13 5 6 17
35 25 62 18 58 67 192 91 250 10 22 17 40 16 40 -2 0 18 52 95 240 105 259
220 513 357 785 108 215 149 294 220 420 13 25 38 70 55 100 17 30 58 101 92
158 34 57 61 106 61 108 0 3 5 10 10 17 11 12 223 345 244 382 6 11 17 24 24
28 6 4 12 12 12 18 0 16 377 546 451 634 10 11 67 83 128 159 99 124 338 407
402 477 13 14 64 70 114 125 49 54 202 211 340 348 281 279 278 276 435 416
175 156 182 162 240 210 30 25 61 51 69 58 20 20 240 196 346 277 50 39 95 73
100 78 188 151 976 677 1014 677 5 0 11 4 13 8 2 5 57 39 123 76 66 38 140 80
165 94 145 83 590 312 607 312 5 0 14 5 21 12 6 6 17 13 24 14 7 1 65 27 128
57 113 54 465 207 476 207 3 0 24 8 47 19 23 10 80 33 127 50 47 18 94 36 105
41 25 10 57 22 70 26 6 1 55 19 110 38 232 85 589 197 810 256 44 12 105 28
135 36 30 9 66 17 80 20 14 2 32 7 40 10 8 3 26 8 40 10 14 3 43 10 65 16 22
5 51 12 64 15 14 2 28 6 31 8 4 2 22 7 41 10 19 3 54 11 79 16 55 13 77 18
110 24 14 3 36 7 50 10 14 4 34 8 45 9 11 2 34 6 50 10 17 3 41 8 55 11 14 2
36 7 50 10 14 2 40 7 58 10 56 9 86 14 122 21 19 3 45 8 57 9 25 4 96 15 128
21 11 2 40 6 65 9 25 3 59 8 75 11 17 3 48 7 69 9 21 3 56 7 76 10 38 6 89 12
172 20 27 3 65 7 85 9 21 3 72 8 113 11 41 4 91 8 110 10 39 4 212 16 280 20
25 2 137 6 250 10 113 4 206 8 207 9 5 5 502 -2 663 -9z m1085 -6989 c28 -3
115 -7 195 -11 273 -11 345 -14 445 -20 219 -13 332 -23 445 -39 99 -14 117
-17 140 -21 14 -3 36 -7 50 -10 14 -3 38 -8 54 -11 185 -33 520 -160 497 -187
-5 -7 -40 -28 -78 -47 -37 -19 -69 -38 -71 -42 -2 -5 -7 -8 -12 -8 -4 0 -52
-25 -106 -56 -55 -31 -124 -70 -154 -87 -50 -28 -616 -351 -700 -400 -19 -11
-54 -31 -78 -44 -23 -13 -147 -85 -275 -160 -127 -74 -248 -144 -267 -155
-212 -121 -1217 -726 -1648 -992 -260 -160 -485 -298 -500 -306 -15 -8 -29
-17 -32 -20 -3 -3 -84 -54 -180 -115 -96 -60 -211 -132 -255 -160 -44 -28
-136 -87 -205 -131 -69 -43 -126 -82 -128 -86 -2 -5 -8 -8 -12 -8 -9 0 -399
-247 -410 -260 -3 -3 -13 -9 -22 -15 -81 -46 -1156 -756 -1468 -970 -150 -103
-387 -264 -440 -299 -25 -16 -47 -32 -50 -35 -3 -4 -32 -24 -65 -46 -250 -166
-1500 -1049 -1622 -1145 -44 -35 -43 -44 -29 165 7 104 13 165 20 225 2 19 7
61 11 93 3 32 8 68 11 80 2 12 7 42 10 67 3 25 7 52 10 61 3 9 7 32 9 50 3 19
7 45 10 59 3 14 7 36 10 50 9 49 13 67 40 180 31 132 101 377 121 427 8 18 11
33 8 33 -4 0 -2 6 3 13 8 10 24 54 27 77 1 3 9 24 18 45 31 74 109 270 112
280 1 6 11 28 21 50 11 22 20 42 20 45 0 3 33 71 73 153 64 127 117 226 212
392 127 224 414 606 614 820 31 33 56 60 56 61 0 1 181 180 273 270 68 65 217
195 332 288 66 53 127 102 135 110 21 19 232 174 313 229 164 114 201 139 352
233 88 55 191 118 228 140 38 21 81 46 95 55 28 16 98 54 237 129 93 51 361
184 455 228 151 70 200 92 205 92 3 0 20 7 38 17 17 9 34 17 37 18 3 0 57 22
120 48 63 27 140 59 170 72 30 13 66 26 79 30 13 4 40 14 60 23 20 9 41 17 46
18 6 1 30 10 55 19 66 24 323 116 335 119 6 1 37 11 70 21 33 10 65 20 70 21
6 1 64 19 130 39 99 30 392 107 454 120 9 2 39 9 66 15 57 13 80 18 115 25 14
3 36 7 50 10 14 3 41 8 60 11 19 3 42 7 50 9 8 2 33 7 55 10 23 3 52 7 65 10
14 3 46 7 71 10 25 3 55 7 68 10 12 2 54 7 94 10 39 4 73 8 75 10 5 5 443 -3
507 -9z m-10448 -9483 c3 -10 19 -46 34 -81 16 -35 29 -65 29 -67 0 -15 250
-525 326 -665 139 -256 379 -662 395 -668 5 -2 9 -8 9 -13 0 -8 88 -149 99
-159 3 -3 11 -13 16 -22 21 -37 199 -293 237 -343 5 -5 59 -78 121 -160 318
-425 743 -904 1109 -1249 45 -43 108 -102 138 -130 47 -45 110 -101 285 -255
104 -92 374 -309 570 -459 169 -129 608 -431 750 -515 22 -13 114 -69 205
-124 91 -55 197 -117 235 -138 39 -21 88 -48 110 -61 113 -65 704 -364 720
-364 2 0 42 -17 87 -39 68 -32 191 -85 303 -130 11 -5 31 -13 45 -19 165 -71
515 -199 745 -271 72 -23 144 -46 162 -51 18 -6 40 -13 50 -15 10 -3 59 -16
108 -31 50 -14 97 -28 105 -30 8 -2 33 -8 55 -14 68 -19 119 -32 142 -36 12
-2 35 -9 50 -15 16 -6 29 -10 31 -10 3 2 27 -3 157 -33 110 -25 283 -61 340
-71 17 -2 41 -7 55 -10 30 -6 121 -22 175 -30 61 -10 64 -11 71 -18 4 -3 -4
-4 -17 -2 -13 3 -55 7 -94 10 -94 7 -173 14 -215 20 -19 2 -64 7 -100 10 -36
3 -76 8 -90 10 -14 2 -45 7 -70 10 -96 11 -180 23 -220 30 -8 2 -37 6 -65 10
-98 13 -110 15 -135 20 -13 2 -40 7 -60 10 -35 5 -61 10 -110 20 -14 2 -38 7
-55 10 -16 3 -41 7 -55 10 -26 5 -121 23 -167 31 -16 3 -36 7 -45 10 -9 3 -25
7 -35 9 -10 2 -52 11 -93 20 -41 9 -83 18 -93 20 -10 2 -26 6 -35 9 -9 3 -28
7 -42 10 -14 2 -72 16 -130 31 -58 15 -112 29 -120 30 -8 2 -42 11 -75 20 -33
9 -67 18 -75 20 -8 2 -28 8 -45 15 -16 6 -31 11 -33 10 -3 -2 -97 25 -202 58
-47 14 -87 27 -90 27 -3 1 -66 21 -140 45 -74 24 -137 44 -140 45 -3 0 -36 12
-75 27 -38 14 -146 54 -240 89 -93 34 -194 72 -223 85 -29 13 -55 24 -58 24
-3 0 -20 6 -37 14 -18 8 -77 34 -132 57 -55 23 -133 57 -173 75 -41 19 -75 34
-77 34 -6 0 -219 100 -235 111 -8 5 -23 12 -34 16 -73 24 -523 267 -836 451
-107 63 -221 132 -252 153 -31 22 -59 39 -63 39 -3 0 -28 16 -55 35 -27 19
-54 35 -59 35 -5 0 -11 4 -13 8 -2 4 -59 46 -128 92 -69 46 -126 87 -128 92
-2 4 -8 8 -13 8 -5 0 -76 48 -157 107 -354 258 -650 499 -987 802 -137 124
-612 592 -695 686 -19 22 -76 85 -125 140 -200 221 -416 484 -596 722 -62 81
-120 159 -131 173 -10 14 -50 70 -89 125 -38 55 -76 107 -83 116 -7 9 -15 20
-17 25 -3 7 -176 271 -258 394 -67 101 -163 272 -155 279 5 4 74 61 154 127
80 65 154 127 165 136 163 136 562 458 568 458 4 0 10 -8 14 -17z m-1523
-1518 c341 -454 700 -867 1106 -1275 224 -225 360 -356 501 -480 40 -36 80
-72 89 -80 25 -24 195 -169 310 -264 232 -193 766 -596 789 -596 5 0 11 -3 13
-8 4 -11 106 -82 117 -82 5 0 11 -3 13 -8 4 -10 156 -112 167 -112 5 0 11 -4
13 -8 2 -5 31 -26 66 -48 34 -21 80 -50 102 -64 43 -27 175 -109 202 -125 10
-5 55 -32 100 -59 46 -27 103 -60 128 -74 25 -14 50 -28 55 -33 6 -4 35 -21
65 -37 30 -16 98 -53 150 -81 177 -98 844 -425 869 -426 3 -1 15 -6 26 -12 11
-5 88 -38 170 -73 83 -34 164 -68 180 -75 28 -12 265 -102 385 -147 30 -11 69
-25 85 -31 17 -7 32 -12 35 -13 3 0 12 -3 20 -7 25 -9 321 -109 334 -112 6 -1
18 -5 26 -8 8 -3 49 -15 90 -27 41 -12 86 -25 100 -31 14 -5 34 -11 45 -14 11
-3 45 -12 75 -21 30 -9 71 -20 90 -25 19 -5 42 -12 50 -14 49 -14 138 -38 153
-41 10 -2 27 -6 37 -9 10 -3 27 -7 37 -9 10 -2 47 -12 83 -21 36 -9 72 -19 80
-20 103 -24 301 -68 320 -71 14 -3 41 -9 60 -14 19 -5 55 -12 80 -15 24 -4 47
-8 50 -10 3 -2 21 -6 40 -9 19 -3 45 -8 56 -10 12 -2 37 -7 55 -10 19 -3 45
-8 59 -10 14 -3 41 -7 60 -10 19 -3 46 -8 60 -11 21 -4 52 -9 125 -20 11 -2
43 -6 70 -9 28 -4 57 -9 65 -11 8 -2 41 -7 73 -10 32 -4 68 -8 80 -11 12 -2
47 -6 77 -10 30 -3 66 -7 80 -9 14 -2 48 -6 75 -9 143 -14 173 -18 207 -21 63
-7 200 -18 373 -30 302 -21 1105 -28 1390 -11 83 5 204 8 270 6 369 -9 910 -3
1145 15 113 8 210 16 249 20 40 4 111 11 201 20 66 6 177 21 225 29 17 2 54 8
84 11 30 4 63 9 75 11 11 2 38 6 61 9 45 7 79 13 115 20 13 2 42 7 65 10 22 4
72 13 110 20 39 8 84 17 100 19 17 3 44 8 60 11 30 5 30 5 5 -7 -14 -6 -27
-12 -30 -12 -3 -1 -18 -6 -35 -13 -53 -20 -70 -26 -80 -29 -5 -1 -55 -19 -110
-38 -55 -20 -183 -64 -285 -98 -102 -33 -212 -69 -245 -80 -33 -11 -64 -21
-70 -22 -5 -2 -30 -9 -55 -16 -25 -7 -49 -14 -55 -15 -5 -2 -44 -13 -85 -25
-41 -12 -77 -22 -80 -22 -3 0 -12 -4 -21 -9 -9 -4 -28 -10 -43 -13 -15 -3 -53
-12 -84 -21 -31 -10 -64 -19 -72 -21 -14 -3 -75 -19 -112 -29 -10 -3 -27 -7
-38 -10 -11 -3 -29 -7 -40 -10 -11 -3 -29 -7 -40 -10 -44 -11 -66 -16 -90 -21
-14 -3 -32 -7 -40 -9 -8 -2 -16 -4 -17 -5 -2 -2 -6 -3 -10 -4 -32 -8 -72 -17
-90 -21 -13 -3 -33 -7 -45 -10 -13 -3 -32 -7 -43 -9 -11 -3 -54 -12 -95 -21
-41 -9 -84 -18 -95 -21 -11 -2 -31 -6 -45 -9 -43 -8 -74 -14 -100 -20 -26 -6
-57 -12 -100 -20 -27 -5 -60 -12 -100 -20 -14 -2 -40 -7 -57 -10 -41 -6 -80
-13 -113 -20 -13 -2 -40 -7 -60 -10 -20 -3 -47 -7 -60 -10 -13 -3 -42 -7 -65
-10 -22 -4 -53 -8 -70 -11 -64 -10 -81 -13 -125 -19 -25 -3 -56 -8 -70 -10
-93 -14 -164 -24 -225 -30 -27 -3 -61 -8 -75 -10 -14 -2 -50 -7 -80 -10 -30
-3 -77 -8 -105 -11 -27 -3 -66 -7 -85 -9 -19 -2 -62 -6 -95 -9 -55 -5 -121
-11 -244 -21 -25 -3 -91 -7 -146 -11 -55 -3 -120 -8 -145 -9 -217 -14 -455
-20 -860 -20 -505 0 -807 11 -1150 40 -19 1 -75 6 -125 10 -49 4 -103 9 -120
10 -16 2 -55 6 -86 9 -30 3 -75 7 -100 10 -46 6 -112 13 -189 22 -25 2 -61 7
-80 9 -19 3 -51 7 -70 10 -19 2 -53 7 -75 10 -22 3 -53 8 -70 10 -32 4 -110
16 -135 19 -8 2 -40 6 -70 11 -30 4 -64 9 -75 11 -11 3 -35 7 -54 10 -18 3
-43 7 -54 10 -12 2 -37 6 -57 9 -20 3 -47 8 -60 10 -14 3 -38 8 -55 11 -16 2
-41 7 -55 9 -14 3 -36 7 -50 10 -14 3 -36 7 -50 10 -46 7 -72 12 -245 49 -141
29 -236 51 -324 72 -36 9 -72 17 -80 19 -34 6 -350 88 -432 111 -47 14 -95 26
-105 29 -10 2 -66 18 -124 35 -58 18 -112 34 -120 35 -8 2 -16 4 -17 5 -2 2
-6 3 -10 4 -5 2 -35 11 -68 21 -33 10 -64 20 -70 21 -5 1 -59 19 -120 39 -60
20 -117 38 -125 40 -8 2 -39 13 -67 24 -29 10 -53 17 -53 14 0 -3 -6 -1 -12 5
-7 5 -35 17 -63 25 -111 33 -762 284 -835 322 -16 8 -33 16 -37 16 -15 2 -108
42 -278 119 -22 10 -65 29 -95 43 -143 65 -232 107 -440 211 -124 62 -261 132
-305 156 -44 23 -118 63 -165 88 -47 25 -122 68 -168 94 -46 26 -85 48 -86 48
-20 0 -631 377 -852 526 -86 57 -159 104 -164 104 -4 0 -10 3 -12 8 -5 12 -76
62 -87 62 -6 0 -11 4 -11 8 0 4 -12 15 -27 24 -25 14 -262 184 -288 205 -5 5
-64 49 -130 98 -132 99 -495 388 -590 470 -33 29 -73 63 -89 76 -39 32 -288
251 -350 309 -123 113 -195 180 -263 246 l-74 71 143 125 c79 69 247 214 373
322 127 109 241 207 255 220 44 39 425 363 735 625 165 139 311 263 325 275
117 99 155 126 159 114 2 -7 58 -85 125 -173z m17949 -2380 c-3 -9 -8 -14 -10
-11 -3 3 -2 9 2 15 9 16 15 13 8 -4z m-60 -50 c-3 -9 -8 -14 -10 -11 -3 3 -2
9 2 15 9 16 15 13 8 -4z m-53 -38 c0 -2 -10 -12 -22 -23 l-23 -19 19 23 c18
21 26 27 26 19z m-100 -80 c0 -2 -10 -12 -22 -23 l-23 -19 19 23 c18 21 26 27
26 19z m-50 -41 c0 -2 -8 -10 -17 -17 -16 -13 -17 -12 -4 4 13 16 21 21 21 13z
m-40 -30 c0 -2 -8 -10 -17 -17 -16 -13 -17 -12 -4 4 13 16 21 21 21 13z m-50
-40 c0 -2 -8 -10 -17 -17 -16 -13 -17 -12 -4 4 13 16 21 21 21 13z m-60 -51
c-13 -14 -26 -23 -28 -20 -4 4 38 44 47 45 3 0 -6 -11 -19 -25z m-60 -39 c0
-2 -8 -10 -17 -17 -16 -13 -17 -12 -4 4 13 16 21 21 21 13z m-60 -39 c0 -2
-12 -14 -27 -28 l-28 -24 24 28 c23 25 31 32 31 24z m-150 -121 c0 -2 -7 -7
-16 -10 -8 -3 -12 -2 -9 4 6 10 25 14 25 6z m-120 -81 c0 -2 -10 -9 -22 -15
-22 -11 -22 -10 -4 4 21 17 26 19 26 11z"/>
<path d="M41649 34295 c-2 -1 -42 -6 -89 -10 -47 -4 -87 -8 -90 -10 -3 -2 -27
-6 -55 -9 -27 -4 -57 -9 -65 -11 -8 -2 -31 -7 -50 -10 -19 -3 -43 -8 -52 -11
-9 -3 -25 -7 -35 -9 -71 -14 -217 -58 -288 -86 -16 -7 -34 -13 -40 -14 -28 -7
-183 -76 -280 -125 -97 -49 -321 -183 -335 -200 -3 -3 -30 -24 -60 -45 -294
-212 -597 -555 -777 -880 -54 -96 -154 -309 -168 -355 -4 -14 -11 -29 -15 -35
-14 -18 -90 -269 -105 -348 -2 -9 -6 -20 -8 -25 -3 -4 -8 -23 -11 -42 -3 -19
-8 -46 -11 -60 -2 -14 -7 -36 -10 -50 -41 -213 -52 -675 -20 -850 2 -14 6 -45
9 -70 3 -25 8 -56 11 -70 3 -14 8 -38 10 -55 3 -16 8 -37 10 -45 2 -8 7 -30
10 -49 3 -19 8 -37 10 -41 2 -3 6 -19 9 -35 8 -45 63 -221 87 -280 7 -16 13
-35 14 -40 2 -6 12 -31 23 -55 11 -25 34 -77 51 -117 37 -86 159 -307 172
-311 5 -2 9 -8 9 -13 0 -23 168 -252 255 -349 270 -300 559 -521 900 -684 143
-69 193 -89 325 -132 127 -42 248 -74 330 -88 19 -3 46 -8 60 -11 14 -3 45 -8
70 -11 25 -3 53 -8 64 -10 120 -23 562 -23 686 0 14 3 45 7 70 10 25 3 56 8
70 11 14 3 41 8 60 11 30 5 73 16 240 59 14 4 32 9 40 13 8 3 17 6 20 7 18 4
88 28 105 35 18 7 53 21 65 25 3 1 18 7 33 13 16 7 30 12 32 12 12 0 224 106
299 149 289 167 570 407 784 668 226 277 409 626 518 987 29 94 80 326 89 406
4 30 9 69 11 85 21 176 21 547 0 651 -2 11 -7 45 -10 75 -6 53 -12 90 -21 139
-3 14 -8 39 -11 55 -3 17 -10 48 -16 70 -5 22 -11 47 -13 55 -2 8 -8 29 -15
45 -6 17 -11 30 -10 30 5 0 -25 100 -51 170 -17 44 -35 94 -40 112 -22 72
-184 377 -268 503 -118 178 -198 278 -354 439 -78 80 -282 255 -350 299 -23
15 -44 29 -47 33 -10 11 -115 78 -202 128 -262 150 -570 263 -868 317 -19 4
-44 8 -55 10 -11 2 -44 6 -73 10 -29 3 -63 8 -75 11 -24 6 -503 14 -508 8z"/>
<path d="M44667 29755 c-132 -220 -291 -421 -492 -620 -265 -264 -516 -445
-855 -616 -69 -35 -129 -64 -135 -65 -5 -1 -32 -12 -60 -25 -27 -13 -55 -24
-61 -25 -6 -1 -27 -9 -45 -17 -19 -8 -56 -22 -82 -32 -43 -15 -47 -19 -35 -34
7 -10 52 -69 99 -132 47 -63 112 -157 143 -209 60 -99 206 -390 206 -410 0 -6
5 -21 12 -33 7 -12 13 -26 14 -32 1 -5 10 -30 19 -55 28 -77 88 -276 100 -333
2 -10 6 -26 9 -35 3 -9 8 -30 11 -47 2 -16 7 -41 10 -55 3 -14 8 -38 10 -55 3
-16 8 -37 10 -45 6 -24 18 -107 41 -295 26 -212 25 -831 -1 -1040 -2 -16 -7
-61 -11 -100 -11 -116 -19 -185 -34 -280 -5 -33 -12 -78 -15 -100 -3 -23 -7
-52 -10 -65 -3 -13 -7 -42 -10 -65 -3 -22 -8 -47 -10 -55 -2 -8 -6 -31 -9 -50
-3 -19 -8 -46 -11 -60 -3 -14 -8 -38 -11 -55 -3 -16 -9 -48 -14 -70 -5 -22
-11 -53 -14 -70 -9 -50 -15 -76 -20 -93 -3 -9 -7 -28 -10 -42 -3 -14 -7 -34
-10 -45 -2 -11 -10 -42 -16 -70 -14 -62 -19 -80 -25 -105 -3 -11 -7 -29 -10
-41 -2 -11 -7 -29 -10 -39 -3 -10 -8 -28 -10 -39 -11 -48 -13 -58 -26 -101 -7
-25 -14 -49 -15 -55 -15 -57 -106 -370 -118 -403 -8 -23 -15 -44 -16 -47 0 -3
0 -6 -1 -7 0 -2 -2 -10 -4 -18 -2 -8 -13 -42 -25 -75 -11 -33 -20 -60 -20 -60
1 0 -1 -7 -4 -15 -3 -8 -35 -105 -72 -215 -36 -110 -86 -254 -111 -320 -25
-66 -46 -124 -47 -130 -2 -5 -6 -19 -11 -30 -4 -11 -25 -67 -47 -125 -78 -205
-90 -235 -109 -277 -10 -23 -19 -48 -19 -55 0 -8 -4 -18 -8 -24 -5 -5 -15 -25
-22 -44 -7 -19 -22 -55 -33 -80 -11 -24 -20 -49 -21 -55 -1 -5 -12 -32 -25
-60 -13 -27 -24 -54 -25 -60 -2 -5 -10 -26 -19 -45 -9 -19 -30 -69 -47 -110
-17 -41 -37 -86 -45 -100 -7 -14 -14 -28 -14 -32 -3 -13 -41 -102 -55 -128 -8
-14 -15 -28 -16 -32 -1 -10 -49 -117 -121 -275 -78 -171 -93 -203 -122 -263
-17 -36 -31 -67 -32 -70 -4 -19 -405 -828 -526 -1060 -153 -296 -310 -589
-439 -825 -15 -27 -38 -68 -50 -90 -12 -22 -31 -58 -44 -80 -12 -22 -42 -76
-65 -120 -24 -44 -47 -84 -51 -90 -4 -5 -22 -37 -40 -70 -38 -69 -61 -110
-102 -180 -16 -27 -34 -61 -41 -75 -6 -14 -14 -27 -17 -30 -3 -3 -11 -16 -18
-29 -29 -51 -53 -92 -71 -123 -10 -18 -43 -76 -73 -128 -30 -52 -66 -114 -81
-137 -15 -24 -27 -45 -27 -48 0 -3 -22 -41 -50 -85 -27 -44 -50 -82 -50 -84 0
-3 -29 -54 -65 -113 -36 -59 -69 -115 -74 -123 -5 -8 -71 -118 -147 -245 -76
-126 -146 -241 -156 -254 -10 -13 -18 -31 -18 -39 0 -8 28 23 63 71 200 274
341 462 349 465 4 2 8 8 8 13 0 6 26 45 58 87 32 42 85 115 117 162 32 47 62
87 65 90 5 4 129 178 404 567 28 39 94 134 146 209 52 76 122 177 154 224 227
328 766 1143 766 1159 0 5 3 11 8 13 11 4 152 226 152 238 0 6 7 13 15 16 8 4
15 10 15 14 0 5 54 95 120 201 67 105 128 204 136 218 8 14 26 44 39 66 14 22
28 47 32 55 4 8 15 24 25 34 10 11 18 24 18 28 0 5 12 27 27 51 121 191 578
984 658 1142 11 22 26 46 33 53 6 7 12 17 12 22 0 4 17 39 38 77 98 174 511
976 517 1003 1 3 23 50 49 105 46 96 79 166 133 285 14 30 43 93 64 138 22 46
39 86 39 88 0 2 11 27 24 56 13 29 35 79 50 111 14 32 26 60 26 63 0 3 11 30
25 60 14 30 61 146 106 257 44 111 84 211 89 222 15 34 122 319 124 330 1 6 4
15 7 20 6 9 49 134 56 160 1 6 12 37 23 70 12 33 23 65 24 70 2 6 6 19 10 30
25 64 34 91 34 95 1 3 3 12 6 20 9 28 77 250 81 268 3 9 11 40 19 67 20 66 67
236 71 255 2 8 17 67 33 130 17 63 33 126 36 140 3 14 7 34 10 45 11 48 25
112 30 135 3 14 8 36 11 50 3 14 7 36 10 50 3 14 7 36 10 50 3 14 8 39 11 55
2 17 7 41 9 55 3 14 7 36 10 50 5 23 15 84 20 125 2 11 6 34 9 50 16 90 34
231 51 390 4 33 8 76 10 95 21 186 28 813 12 995 -15 168 -28 276 -41 360 -2
11 -6 38 -10 60 -3 23 -8 52 -11 65 -3 14 -7 39 -10 55 -7 36 -32 153 -47 215
-5 25 -14 56 -19 70 -5 14 -11 34 -14 45 -15 66 -28 111 -60 200 -20 55 -37
105 -38 112 -2 7 -6 16 -10 19 -4 4 -7 13 -7 21 0 7 -9 32 -19 56 -11 23 -32
71 -47 107 -28 68 -112 240 -117 240 -2 0 -29 -43 -60 -95z"/>
<path d="M39846 16733 c-6 -14 -5 -15 5 -6 7 7 10 15 7 18 -3 3 -9 -2 -12 -12z"/>
</g>
</svg>
